<svg width="100%" height="100%" viewBox="0 0 52 52" fill="none" xmlns="http://www.w3.org/2000/svg">
<path d="M31.0781 43.5703C30.5175 43.5703 30.0625 43.1153 30.0625 42.5547C30.0625 41.9941 30.5175 41.5391 31.0781 41.5391C31.6387 41.5391 32.0938 41.9941 32.0938 42.5547C32.0938 43.1153 31.6387 43.5703 31.0781 43.5703Z" fill="black"/>
<path d="M20.9219 43.5703C20.3613 43.5703 19.9062 43.1153 19.9062 42.5547C19.9062 41.9941 20.3613 41.5391 20.9219 41.5391C21.4825 41.5391 21.9375 41.9941 21.9375 42.5547C21.9375 43.1153 21.4825 43.5703 20.9219 43.5703Z" fill="black"/>
<path d="M48.0516 21.6448C48.9233 22.9531 49.3594 24.5855 49.3594 26C49.3594 28.1324 48.4121 30.1136 46.7866 31.4571C47.1463 32.3167 47.3281 33.2107 47.3281 34.125C47.3281 36.954 45.6771 39.5894 43.2225 40.82C43.5949 43.9089 41.5821 46.7403 38.5993 47.4625C37.4319 50.1613 34.8334 52 32.0938 52C29.5435 52 27.2562 50.5125 26 48.3421C24.7437 50.5125 22.4564 52 19.9062 52C17.1664 52 14.5679 50.1613 13.4007 47.4624C10.4 46.7356 8.40613 43.8901 8.77754 40.82C6.32298 39.5895 4.67188 36.954 4.67188 34.125C4.67188 33.2107 4.85367 32.3167 5.21341 31.4571C3.5879 30.1135 2.64062 28.1324 2.64062 26C2.64062 24.5781 3.08039 22.9478 3.94845 21.6449C3.1002 20.4475 2.64062 19.0283 2.64062 17.5703C2.64062 15.6796 3.40722 13.8785 4.76318 12.5411C4.06605 8.32711 7.42676 4.0625 11.7812 4.0625C11.8127 4.0625 11.8437 4.06301 11.8741 4.06392C13.3178 1.57341 15.9976 0 18.8906 0C21.9058 0 24.6001 1.80984 26 4.41736C27.3999 1.80984 30.0942 0 33.1094 0C36.0024 0 38.6822 1.57341 40.1259 4.06392C40.1564 4.06301 40.1873 4.0625 40.2188 4.0625C44.0724 4.0625 47.3281 7.45773 47.3281 11.4766C47.3281 11.8187 47.2981 12.1706 47.2368 12.5411C48.5928 13.8785 49.3594 15.6795 49.3594 17.5703C49.3594 19.0283 48.8998 20.4475 48.0516 21.6448ZM24.9844 36.6254C24.3864 36.9722 23.6928 37.1719 22.9531 37.1719C22.3922 37.1719 21.9375 36.7172 21.9375 36.1562C21.9375 35.5953 22.3922 35.1406 22.9531 35.1406C24.0732 35.1406 24.9844 34.2294 24.9844 33.1094V13.7953C23.4944 15.4854 21.3156 16.5547 18.8906 16.5547C18.3297 16.5547 17.875 16.1 17.875 15.5391C17.875 14.9781 18.3297 14.5234 18.8906 14.5234C22.2507 14.5234 24.9844 11.7898 24.9844 8.42969C24.9844 4.96143 22.1937 2.03125 18.8906 2.03125C16.5393 2.03125 14.3746 3.42174 13.3759 5.57375C13.1918 5.97035 12.7747 6.20425 12.3399 6.1553C12.2681 6.14707 12.1967 6.13752 12.1253 6.12777C9.23488 5.73249 5.9798 9.00555 6.86095 12.6671C6.95145 13.0432 6.82043 13.4378 6.52316 13.6852C5.34666 14.6642 4.67188 16.0803 4.67188 17.5703C4.67188 18.4916 4.93238 19.3932 5.41714 20.1837C6.63528 19.1854 8.15049 18.5859 9.75 18.5859C10.3109 18.5859 10.7656 19.0406 10.7656 19.6016C10.7656 20.1625 10.3109 20.6172 9.75 20.6172C6.9937 20.6172 4.67188 23.1329 4.67188 26C4.67188 27.7393 5.55841 29.3393 7.04356 30.28C7.5011 30.5699 7.6507 31.1678 7.38349 31.639C6.93205 32.4351 6.70312 33.2716 6.70312 34.125C6.70312 36.8662 8.9377 39.5078 11.7812 39.5078C14.4865 39.5078 16.8594 36.9924 16.8594 34.125C16.8594 33.5641 17.3141 33.1094 17.875 33.1094C18.4359 33.1094 18.8906 33.5641 18.8906 34.125C18.8906 38.1438 15.6349 41.5391 11.7812 41.5391C11.4412 41.5391 11.103 41.5115 10.7682 41.4594C10.7677 41.4861 10.7656 41.5121 10.7656 41.5391C10.7656 43.8056 12.6056 45.6016 14.8281 45.6016C15.913 45.6016 16.9335 45.179 17.7015 44.4118C18.0983 44.0154 18.7413 44.0158 19.1378 44.4125C19.5342 44.8094 19.5339 45.4524 19.1371 45.8488C18.2106 46.7743 17.0386 47.3646 15.7686 47.5602C16.6643 48.8898 18.1537 49.9688 19.9062 49.9688C22.6115 49.9688 24.9844 47.4535 24.9844 44.5859V36.6254ZM42.25 18.5859C43.8496 18.5859 45.3648 19.1855 46.583 20.1834C47.0676 19.393 47.3281 18.4915 47.3281 17.5703C47.3281 16.0803 46.6533 14.6642 45.4769 13.6852C45.1796 13.4378 45.0487 13.0431 45.1391 12.6671C45.2468 12.2199 45.2969 11.8416 45.2969 11.4767C45.2969 8.32417 42.4455 5.77637 39.8748 6.12777C39.8034 6.13752 39.7319 6.14717 39.6601 6.1553C39.2247 6.20455 38.8081 5.97035 38.6242 5.57375C37.6255 3.42174 35.4606 2.03125 33.1094 2.03125C29.8063 2.03125 27.0156 4.96143 27.0156 8.42969C27.0156 11.7898 29.7493 14.5234 33.1094 14.5234C33.6702 14.5234 34.125 14.9781 34.125 15.5391C34.125 16.1 33.6702 16.5547 33.1094 16.5547C30.6844 16.5547 28.5056 15.4854 27.0156 13.7953V33.1094C27.0156 34.2294 27.9268 35.1406 29.0469 35.1406C29.6077 35.1406 30.0625 35.5953 30.0625 36.1562C30.0625 36.7172 29.6077 37.1719 29.0469 37.1719C28.3072 37.1719 27.6136 36.9722 27.0156 36.6254V44.5859C27.0156 47.4535 29.3885 49.9688 32.0938 49.9688C33.8463 49.9688 35.3356 48.8898 36.2313 47.5603C34.9614 47.3647 33.7895 46.7744 32.8629 45.8489C32.466 45.4525 32.4656 44.8095 32.862 44.4126C33.2584 44.0157 33.9016 44.0154 34.2983 44.4118C35.0666 45.179 36.087 45.6016 37.1719 45.6016C39.4055 45.6016 41.2344 43.7951 41.2344 41.5391C41.2344 41.5122 41.2323 41.4861 41.2318 41.4594C40.897 41.5115 40.5588 41.5391 40.2188 41.5391C36.3651 41.5391 33.1094 38.1438 33.1094 34.125C33.1094 33.5641 33.5642 33.1094 34.125 33.1094C34.6858 33.1094 35.1406 33.5641 35.1406 34.125C35.1406 36.9924 37.5135 39.5078 40.2188 39.5078C43.0607 39.5078 45.2969 36.8675 45.2969 34.125C45.2969 33.2716 45.068 32.4351 44.6165 31.639C44.3494 31.1678 44.499 30.5699 44.9565 30.28C46.4416 29.3393 47.3281 27.7393 47.3281 26C47.3281 23.1226 44.9982 20.6172 42.25 20.6172C41.6892 20.6172 41.2344 20.1625 41.2344 19.6016C41.2344 19.0406 41.6892 18.5859 42.25 18.5859Z" fill="black"/>
<path d="M22.6944 30.2602C22.3205 30.6783 21.6785 30.714 21.2604 30.3401C18.0035 27.4268 12.7969 29.7551 12.7969 34.125C12.7969 34.6859 12.3422 35.1406 11.7812 35.1406C11.2203 35.1406 10.7656 34.6859 10.7656 34.125C10.7656 30.5993 13.346 27.6661 16.7172 27.1114C16.3262 25.8796 15.172 24.9844 13.8125 24.9844C13.2516 24.9844 12.7969 24.5297 12.7969 23.9688C12.7969 23.4078 13.2516 22.9531 13.8125 22.9531C16.2863 22.9531 18.3513 24.7315 18.7994 27.0768C20.2119 27.2615 21.5412 27.8659 22.6146 28.8262C23.0326 29.2001 23.0684 29.8422 22.6944 30.2602Z" fill="black"/>
<path d="M11.7812 12.4922C11.2203 12.4922 10.7656 12.0375 10.7656 11.4766C10.7656 10.9156 11.2203 10.4609 11.7812 10.4609C14.4865 10.4609 16.8594 7.94554 16.8594 5.07812C16.8594 4.5172 17.3141 4.0625 17.875 4.0625C18.4359 4.0625 18.8906 4.5172 18.8906 5.07812C18.8906 9.09695 15.6349 12.4922 11.7812 12.4922Z" fill="black"/>
<path d="M19.9063 20.6172C16.4648 20.6172 13.5099 18.7296 11.954 15.9851C11.6774 15.4971 11.8488 14.8773 12.3367 14.6007C12.8247 14.3242 13.4444 14.4954 13.7211 14.9834C14.9332 17.1219 17.2332 18.5859 19.9063 18.5859C20.4673 18.5859 20.922 19.0406 20.922 19.6016C20.922 20.1625 20.4673 20.6172 19.9063 20.6172Z" fill="black"/>
<path d="M38.1875 24.9844C36.828 24.9844 35.6738 25.8796 35.2828 27.1114C38.654 27.6661 41.2344 30.5993 41.2344 34.125C41.2344 34.6859 40.7796 35.1406 40.2188 35.1406C39.6579 35.1406 39.2031 34.6859 39.2031 34.125C39.2031 31.3249 36.9251 29.0469 34.125 29.0469C32.8742 29.0469 31.672 29.5061 30.7396 30.3401C30.3217 30.714 29.6795 30.6784 29.3056 30.2602C28.9315 29.8422 28.9674 29.2001 29.3854 28.8262C30.4588 27.8659 31.7883 27.2615 33.2006 27.0768C33.6487 24.7315 35.7138 22.9531 38.1875 22.9531C38.7484 22.9531 39.2031 23.4078 39.2031 23.9688C39.2031 24.5297 38.7484 24.9844 38.1875 24.9844Z" fill="black"/>
<path d="M40.2188 12.4922C36.3651 12.4922 33.1094 9.09695 33.1094 5.07812C33.1094 4.5172 33.5642 4.0625 34.125 4.0625C34.6858 4.0625 35.1406 4.5172 35.1406 5.07812C35.1406 7.94554 37.5135 10.4609 40.2188 10.4609C40.7796 10.4609 41.2344 10.9156 41.2344 11.4766C41.2344 12.0375 40.7796 12.4922 40.2188 12.4922Z" fill="black"/>
<path d="M40.0461 15.985C38.494 18.723 35.5432 20.6172 32.0937 20.6172C31.5329 20.6172 31.0781 20.1625 31.0781 19.6016C31.0781 19.0406 31.5329 18.5859 32.0937 18.5859C34.7649 18.5859 37.0667 17.1223 38.2788 14.9834C38.5558 14.4948 39.176 14.3244 39.6632 14.6006C40.1512 14.8772 40.3225 15.497 40.0461 15.985Z" fill="black"/>
</svg>
