<svg width="100%" height="100%" viewBox="0 0 26 26" fill="none" xmlns="http://www.w3.org/2000/svg">
<path d="M15.5391 21.7852C15.2588 21.7852 15.0312 21.5577 15.0312 21.2773C15.0312 20.997 15.2588 20.7695 15.5391 20.7695C15.8194 20.7695 16.0469 20.997 16.0469 21.2773C16.0469 21.5577 15.8194 21.7852 15.5391 21.7852Z" fill="black"/>
<path d="M10.4609 21.7852C10.1806 21.7852 9.95312 21.5577 9.95312 21.2773C9.95312 20.997 10.1806 20.7695 10.4609 20.7695C10.7412 20.7695 10.9688 20.997 10.9688 21.2773C10.9688 21.5577 10.7412 21.7852 10.4609 21.7852Z" fill="black"/>
<path d="M24.0258 10.8224C24.4616 11.4766 24.6797 12.2928 24.6797 13C24.6797 14.0662 24.2061 15.0568 23.3933 15.7285C23.5732 16.1583 23.6641 16.6054 23.6641 17.0625C23.6641 18.477 22.8386 19.7947 21.6112 20.41C21.7974 21.9545 20.7911 23.3701 19.2997 23.7312C18.7159 25.0807 17.4167 26 16.0469 26C14.7718 26 13.6281 25.2563 13 24.1711C12.3718 25.2563 11.2282 26 9.95312 26C8.5832 26 7.28396 25.0807 6.70033 23.7312C5.2 23.3678 4.20306 21.9451 4.38877 20.41C3.16149 19.7947 2.33594 18.477 2.33594 17.0625C2.33594 16.6054 2.42684 16.1583 2.6067 15.7285C1.79395 15.0567 1.32031 14.0662 1.32031 13C1.32031 12.2891 1.5402 11.4739 1.97422 10.8224C1.5501 10.2237 1.32031 9.51417 1.32031 8.78516C1.32031 7.83981 1.70361 6.93926 2.38159 6.27057C2.03303 4.16356 3.71338 2.03125 5.89062 2.03125C5.90637 2.03125 5.92186 2.0315 5.93704 2.03196C6.65889 0.786703 7.99881 0 9.44531 0C10.9529 0 12.3 0.904921 13 2.20868C13.7 0.904921 15.0471 0 16.5547 0C18.0012 0 19.3411 0.786703 20.063 2.03196C20.0782 2.0315 20.0936 2.03125 20.1094 2.03125C22.0362 2.03125 23.6641 3.72887 23.6641 5.73828C23.6641 5.90936 23.649 6.08532 23.6184 6.27057C24.2964 6.93926 24.6797 7.83976 24.6797 8.78516C24.6797 9.51417 24.4499 10.2237 24.0258 10.8224ZM12.4922 18.3127C12.1932 18.4861 11.8464 18.5859 11.4766 18.5859C11.1961 18.5859 10.9688 18.3586 10.9688 18.0781C10.9688 17.7977 11.1961 17.5703 11.4766 17.5703C12.0366 17.5703 12.4922 17.1147 12.4922 16.5547V6.89767C11.7472 7.74272 10.6578 8.27734 9.44531 8.27734C9.16485 8.27734 8.9375 8.05 8.9375 7.76953C8.9375 7.48907 9.16485 7.26172 9.44531 7.26172C11.1254 7.26172 12.4922 5.89489 12.4922 4.21484C12.4922 2.48071 11.0969 1.01562 9.44531 1.01562C8.26963 1.01562 7.18732 1.71087 6.68794 2.78687C6.59588 2.98518 6.38737 3.10213 6.16997 3.07765C6.13407 3.07353 6.09837 3.06876 6.06267 3.06389C4.61744 2.86625 2.9899 4.50277 3.43048 6.33354C3.47572 6.52158 3.41021 6.71892 3.26158 6.84262C2.67333 7.3321 2.33594 8.04014 2.33594 8.78516C2.33594 9.24579 2.46619 9.69658 2.70857 10.0919C3.31764 9.59268 4.07525 9.29297 4.875 9.29297C5.15546 9.29297 5.38281 9.52032 5.38281 9.80078C5.38281 10.0812 5.15546 10.3086 4.875 10.3086C3.49685 10.3086 2.33594 11.5664 2.33594 13C2.33594 13.8696 2.77921 14.6696 3.52178 15.14C3.75055 15.285 3.82535 15.5839 3.69175 15.8195C3.46602 16.2176 3.35156 16.6358 3.35156 17.0625C3.35156 18.4331 4.46885 19.7539 5.89062 19.7539C7.24323 19.7539 8.42969 18.4962 8.42969 17.0625C8.42969 16.782 8.65704 16.5547 8.9375 16.5547C9.21796 16.5547 9.44531 16.782 9.44531 17.0625C9.44531 19.0719 7.81747 20.7695 5.89062 20.7695C5.72061 20.7695 5.55151 20.7558 5.38408 20.7297C5.38383 20.7431 5.38281 20.7561 5.38281 20.7695C5.38281 21.9028 6.30282 22.8008 7.41406 22.8008C7.95651 22.8008 8.46676 22.5895 8.85077 22.2059C9.04917 22.0077 9.37066 22.0079 9.56891 22.2062C9.76711 22.4047 9.76696 22.7262 9.56856 22.9244C9.10528 23.3872 8.51932 23.6823 7.8843 23.7801C8.33214 24.4449 9.07684 24.9844 9.95312 24.9844C11.3057 24.9844 12.4922 23.7267 12.4922 22.293V18.3127ZM21.125 9.29297C21.9248 9.29297 22.6824 9.59273 23.2915 10.0917C23.5338 9.69648 23.6641 9.24574 23.6641 8.78516C23.6641 8.04014 23.3267 7.3321 22.7385 6.84262C22.5898 6.71892 22.5243 6.52153 22.5696 6.33354C22.6234 6.10995 22.6484 5.92079 22.6484 5.73833C22.6484 4.16208 21.2228 2.88818 19.9374 3.06389C19.9017 3.06876 19.8659 3.07359 19.83 3.07765C19.6123 3.10228 19.4041 2.98518 19.3121 2.78687C18.8127 1.71087 17.7303 1.01562 16.5547 1.01562C14.9031 1.01562 13.5078 2.48071 13.5078 4.21484C13.5078 5.89489 14.8746 7.26172 16.5547 7.26172C16.8351 7.26172 17.0625 7.48907 17.0625 7.76953C17.0625 8.05 16.8351 8.27734 16.5547 8.27734C15.3422 8.27734 14.2528 7.74272 13.5078 6.89767V16.5547C13.5078 17.1147 13.9634 17.5703 14.5234 17.5703C14.8039 17.5703 15.0312 17.7977 15.0312 18.0781C15.0312 18.3586 14.8039 18.5859 14.5234 18.5859C14.1536 18.5859 13.8068 18.4861 13.5078 18.3127V22.293C13.5078 23.7267 14.6943 24.9844 16.0469 24.9844C16.9232 24.9844 17.6678 24.4449 18.1157 23.7801C17.4807 23.6823 16.8948 23.3872 16.4314 22.9244C16.233 22.7262 16.2328 22.4047 16.431 22.2063C16.6292 22.0078 16.9508 22.0077 17.1491 22.2059C17.5333 22.5895 18.0435 22.8008 18.5859 22.8008C19.7028 22.8008 20.6172 21.8975 20.6172 20.7695C20.6172 20.7561 20.6162 20.7431 20.6159 20.7297C20.4485 20.7558 20.2794 20.7695 20.1094 20.7695C18.1825 20.7695 16.5547 19.0719 16.5547 17.0625C16.5547 16.782 16.7821 16.5547 17.0625 16.5547C17.3429 16.5547 17.5703 16.782 17.5703 17.0625C17.5703 18.4962 18.7568 19.7539 20.1094 19.7539C21.5303 19.7539 22.6484 18.4337 22.6484 17.0625C22.6484 16.6358 22.534 16.2176 22.3083 15.8195C22.1747 15.5839 22.2495 15.285 22.4783 15.14C23.2208 14.6696 23.6641 13.8696 23.6641 13C23.6641 11.5613 22.4991 10.3086 21.125 10.3086C20.8446 10.3086 20.6172 10.0812 20.6172 9.80078C20.6172 9.52032 20.8446 9.29297 21.125 9.29297Z" fill="black"/>
<path d="M11.3472 15.1301C11.1602 15.3391 10.8393 15.357 10.6302 15.17C9.00174 13.7134 6.39844 14.8775 6.39844 17.0625C6.39844 17.343 6.17109 17.5703 5.89062 17.5703C5.61016 17.5703 5.38281 17.343 5.38281 17.0625C5.38281 15.2996 6.67301 13.8331 8.35859 13.5557C8.16309 12.9398 7.58601 12.4922 6.90625 12.4922C6.62578 12.4922 6.39844 12.2648 6.39844 11.9844C6.39844 11.7039 6.62578 11.4766 6.90625 11.4766C8.14313 11.4766 9.17566 12.3657 9.39971 13.5384C10.1059 13.6308 10.7706 13.933 11.3073 14.4131C11.5163 14.6001 11.5342 14.9211 11.3472 15.1301Z" fill="black"/>
<path d="M5.89062 6.24609C5.61016 6.24609 5.38281 6.01875 5.38281 5.73828C5.38281 5.45782 5.61016 5.23047 5.89062 5.23047C7.24323 5.23047 8.42969 3.97277 8.42969 2.53906C8.42969 2.2586 8.65704 2.03125 8.9375 2.03125C9.21796 2.03125 9.44531 2.2586 9.44531 2.53906C9.44531 4.54848 7.81747 6.24609 5.89062 6.24609Z" fill="black"/>
<path d="M9.95312 10.3086C8.23235 10.3086 6.75492 9.36482 5.97695 7.99256C5.83868 7.74856 5.92435 7.43864 6.1683 7.30036C6.4123 7.16209 6.72217 7.2477 6.8605 7.49171C7.46657 8.56096 8.61656 9.29297 9.95312 9.29297C10.2336 9.29297 10.4609 9.52032 10.4609 9.80078C10.4609 10.0812 10.2336 10.3086 9.95312 10.3086Z" fill="black"/>
<path d="M19.0937 12.4922C18.414 12.4922 17.8369 12.9398 17.6414 13.5557C19.327 13.8331 20.6172 15.2996 20.6172 17.0625C20.6172 17.343 20.3898 17.5703 20.1094 17.5703C19.829 17.5703 19.6016 17.343 19.6016 17.0625C19.6016 15.6625 18.4625 14.5234 17.0625 14.5234C16.4371 14.5234 15.836 14.7531 15.3698 15.17C15.1608 15.357 14.8397 15.3392 14.6528 15.1301C14.4657 14.9211 14.4837 14.6001 14.6927 14.4131C15.2294 13.933 15.8941 13.6308 16.6003 13.5384C16.8243 12.3657 17.8569 11.4766 19.0937 11.4766C19.3742 11.4766 19.6016 11.7039 19.6016 11.9844C19.6016 12.2648 19.3742 12.4922 19.0937 12.4922Z" fill="black"/>
<path d="M20.1094 6.24609C18.1825 6.24609 16.5547 4.54848 16.5547 2.53906C16.5547 2.2586 16.7821 2.03125 17.0625 2.03125C17.3429 2.03125 17.5703 2.2586 17.5703 2.53906C17.5703 3.97277 18.7568 5.23047 20.1094 5.23047C20.3898 5.23047 20.6172 5.45782 20.6172 5.73828C20.6172 6.01875 20.3898 6.24609 20.1094 6.24609Z" fill="black"/>
<path d="M20.023 7.99251C19.247 9.36152 17.7716 10.3086 16.0469 10.3086C15.7665 10.3086 15.5391 10.0812 15.5391 9.80078C15.5391 9.52032 15.7665 9.29297 16.0469 9.29297C17.3825 9.29297 18.5333 8.56116 19.1394 7.49171C19.2779 7.2474 19.588 7.16219 19.8316 7.30031C20.0756 7.43859 20.1613 7.74851 20.023 7.99251Z" fill="black"/>
</svg>
