<svg width="100%" height="100%" viewBox="0 0 52 52" fill="none" xmlns="http://www.w3.org/2000/svg">
<path d="M23.1562 11.375C23.8293 11.375 24.375 10.8293 24.375 10.1562C24.375 9.48315 23.8293 8.9375 23.1562 8.9375C22.4832 8.9375 21.9375 9.48315 21.9375 10.1562C21.9375 10.8293 22.4832 11.375 23.1562 11.375Z" fill="black"/>
<path d="M48.9836 18.7721C48.1443 17.8405 47.0031 17.2351 45.7611 17.0625C45.6793 17.0347 38.1875 17.0625 38.1875 17.0625C37.972 17.0625 37.7653 17.1481 37.613 17.3005C37.4606 17.4528 37.375 17.6595 37.375 17.875V23.5625H24.375C24.1794 23.5625 23.9903 23.6331 23.8426 23.7613C23.6948 23.8895 23.5982 24.0667 23.5706 24.2603L23.4284 25.2573C23.2415 26.5661 22.7728 27.8189 22.0547 28.929C21.3367 30.0392 20.3863 30.9803 19.2691 31.6875H16.25V33.3125H18.5922L17.9603 39H4.875C4.65951 39 4.45285 39.0856 4.30048 39.238C4.1481 39.3903 4.0625 39.597 4.0625 39.8125V49.5625C4.0625 49.778 4.1481 49.9846 4.30048 50.137C4.45285 50.2894 4.65951 50.375 4.875 50.375H21.125C21.2595 50.375 21.3918 50.3416 21.5102 50.2779C21.6286 50.2142 21.7293 50.1221 21.8033 50.0098C21.8774 49.8976 21.9224 49.7687 21.9343 49.6348C21.9463 49.5009 21.9249 49.3661 21.8719 49.2425L19.5 43.7081V39.8576L20.2642 32.98C21.4865 32.1771 22.535 31.1368 23.3476 29.9209C24.7812 27.7773 25.0798 25.1875 25.0798 25.1875H40.6438C41.0378 25.805 41.5561 26.3338 42.1655 26.7403C42.775 27.1468 43.4623 27.422 44.1838 27.5485C44.9054 27.675 45.6454 27.65 46.3567 27.4751C47.0681 27.3003 47.7353 26.9793 48.316 26.5326C48.8966 26.086 49.378 25.5234 49.7295 24.8807C50.0809 24.238 50.2949 23.5291 50.3577 22.7993C50.4205 22.0694 50.3307 21.3345 50.0942 20.6412C49.8576 19.9479 49.4794 19.3114 48.9836 18.7721ZM17.875 43.0625H15.4375V40.625H17.875V43.0625ZM12.1875 43.0625V40.625H13.8125V43.0625H12.1875ZM10.5625 40.625V43.0625H8.9375V40.625H10.5625ZM7.3125 40.625V43.0625H5.6875V40.625H7.3125ZM5.6875 48.75V44.6875H18.1518L19.8927 48.75H5.6875ZM45.0938 26C44.4195 26.0014 43.7581 25.8156 43.1832 25.4634C42.6082 25.1112 42.1423 24.6064 41.8372 24.0051C41.7691 23.8718 41.6655 23.76 41.5378 23.6819C41.4101 23.6038 41.2634 23.5625 41.1137 23.5625H39V18.6875C39 18.6875 45.3919 18.7003 45.427 18.7034C46.3624 18.7911 47.2281 19.2354 47.8447 19.9442C48.4612 20.6531 48.7813 21.5721 48.7384 22.5106C48.6956 23.4491 48.2931 24.335 47.6145 24.9847C46.9359 25.6344 46.0332 25.998 45.0938 26Z" fill="black"/>
<path d="M8.9375 37.375C9.06884 37.375 9.19822 37.3432 9.31455 37.2822C9.43089 37.2212 9.53071 37.133 9.60548 37.025L16.8857 26.5091C16.8857 26.5091 18.9566 24.3311 19.0345 24.3326C19.7318 24.3491 20.4253 24.2255 21.0739 23.9693C21.7226 23.7132 22.3134 23.3295 22.8112 22.8411C23.3091 22.3527 23.704 21.7694 23.9726 21.1258C24.2412 20.4821 24.378 19.7912 24.375 19.0938C24.375 18.9569 24.3681 18.8218 24.3578 18.6875H35.75V17.0625H25.564C25.8498 16.5686 26.0002 16.0081 26 15.4375V13.8125H28.4375C28.5662 13.8125 28.6931 13.7819 28.8077 13.7233C28.9223 13.6646 29.0213 13.5796 29.0966 13.4751C29.1719 13.3707 29.2213 13.2499 29.2407 13.1226C29.2601 12.9953 29.2491 12.8653 29.2084 12.7431L27.426 7.39507C27.256 6.88344 27.0293 6.39245 26.75 5.93125C27.1342 5.61041 27.4103 5.17902 27.5406 4.69576C27.671 4.21249 27.6493 3.7008 27.4786 3.23028C27.3079 2.75976 26.9963 2.35325 26.5864 2.06602C26.1765 1.7788 25.688 1.62481 25.1875 1.625H17.875C16.5825 1.62645 15.3434 2.14053 14.4295 3.05446C13.5155 3.96838 13.0015 5.20752 13 6.5V13.4759L10.3942 16.0817L11.5433 17.2308L17.6313 11.2119C17.7842 11.0621 17.8719 10.8581 17.8752 10.644C17.8786 10.43 17.7973 10.2233 17.6491 10.0688L17.199 9.59959C17.0335 9.42528 16.9424 9.19343 16.9449 8.95312C16.9474 8.7128 17.0434 8.4829 17.2124 8.31208C17.2984 8.22611 17.4006 8.15803 17.513 8.1118C17.6255 8.06556 17.746 8.04208 17.8676 8.04272C17.9892 8.04335 18.1094 8.06808 18.2214 8.11548C18.3334 8.16289 18.4348 8.23202 18.5199 8.31888L19.6987 9.52209C19.7994 9.62489 19.9256 9.69909 20.0643 9.73712C20.2031 9.77515 20.3495 9.77563 20.4886 9.73853C20.6276 9.70142 20.7543 9.62805 20.8557 9.52593C20.9571 9.4238 21.0295 9.29658 21.0656 9.15728L21.7538 6.5H25.1819C25.4813 6.93406 25.7177 7.40828 25.8842 7.90857L27.3102 12.1875H25.1875C24.972 12.1875 24.7653 12.2731 24.613 12.4255C24.4606 12.5778 24.375 12.7845 24.375 13V15.4375C24.3749 15.6754 24.3225 15.9103 24.2216 16.1257C24.1206 16.3411 23.9736 16.5317 23.7908 16.684C23.3578 15.8391 22.705 15.1266 21.9012 14.6216C21.0973 14.1165 20.1722 13.8376 19.2231 13.8141C18.274 13.7906 17.3362 14.0235 16.5084 14.4882C15.6805 14.9529 14.9933 15.6322 14.5191 16.4546L3.25 28.7862V22.8302C3.25 20.5833 5.04116 18.7253 7.24212 18.6884C7.50379 18.6842 7.76528 18.7046 8.02313 18.7494C8.6736 18.8646 9.28605 19.1371 9.80718 19.5431L10.8064 18.2615C10.0752 17.6921 9.21586 17.31 8.30324 17.1487C7.94419 17.0861 7.58003 17.0576 7.21561 17.0636C4.13288 17.1152 1.625 19.7021 1.625 22.8302V34.9375C1.62573 35.5837 1.88277 36.2033 2.33973 36.6603C2.79669 37.1172 3.41626 37.3743 4.0625 37.375H8.9375ZM21.125 4.875C20.945 4.875 20.7701 4.93478 20.6277 5.04494C20.4854 5.15511 20.3837 5.30942 20.3385 5.48366L19.8529 7.3578L19.6803 7.18159C19.4454 6.94046 19.1647 6.74868 18.8547 6.61751C18.5447 6.48634 18.2116 6.41842 17.875 6.41773H17.8616C17.5273 6.41678 17.1962 6.48217 16.8874 6.61012C16.5785 6.73806 16.2982 6.92602 16.0625 7.1631C15.6137 7.61679 15.3505 8.22174 15.3246 8.85937C15.2986 9.49701 15.5117 10.1214 15.9222 10.61L14.625 11.8803V6.5C14.626 5.63834 14.9687 4.81226 15.578 4.20297C16.1873 3.59369 17.0133 3.25097 17.875 3.25H25.1875C25.403 3.25 25.6097 3.3356 25.762 3.48798C25.9144 3.64035 26 3.84701 26 4.0625C26 4.27799 25.9144 4.48465 25.762 4.63702C25.6097 4.7894 25.403 4.875 25.1875 4.875H21.125ZM15.8924 17.3272C16.213 16.7434 16.6867 16.2581 17.2626 15.9236C17.8385 15.5891 18.4947 15.418 19.1606 15.4287C19.8265 15.4395 20.4769 15.6316 21.0417 15.9846C21.6065 16.3375 22.0643 16.8378 22.3658 17.4316C22.6674 18.0254 22.8013 18.6903 22.753 19.3545C22.7048 20.0188 22.4763 20.6573 22.0921 21.2013C21.7079 21.7453 21.1826 22.1742 20.5728 22.4419C19.9629 22.7095 19.2916 22.8057 18.6311 22.7201C18.5026 22.7039 18.3721 22.7187 18.2505 22.7632C18.1289 22.8076 18.0196 22.8805 17.9319 22.9758L16.2311 24.8219L12.5148 21.079C12.5148 21.079 15.862 17.3821 15.8924 17.3272ZM3.25 34.9375V31.1911L11.4005 22.2996L15.196 26.0951L8.51185 35.75H4.0625C3.84709 35.7498 3.64056 35.6641 3.48824 35.5118C3.33592 35.3594 3.25024 35.1529 3.25 34.9375Z" fill="black"/>
</svg>
