<svg width="100%" height="100%" viewBox="0 0 52 52" fill="none" xmlns="http://www.w3.org/2000/svg">
<g clip-path="url(#clip0)">
<path d="M46.6851 8.42025L26.7789 0.155398C26.2802 -0.0515859 25.7197 -0.0516875 25.2211 0.155398L5.31487 8.42025C4.5567 8.73509 4.0625 9.47528 4.0625 10.2962V20.3433C4.0625 34.1774 12.424 46.6216 25.2324 51.8495C25.7244 52.0503 26.2755 52.0503 26.7676 51.8495C39.5758 46.6217 47.9375 34.1775 47.9375 20.3433V10.2962C47.9375 9.47528 47.4434 8.73509 46.6851 8.42025ZM43.875 20.3433C43.875 32.1037 36.9688 42.93 26 47.7625C15.3244 43.0591 8.125 32.4224 8.125 20.3433V11.6523L26 4.2307L43.875 11.6523V20.3433ZM23.7549 27.19L32.4856 18.4594C33.2788 17.6662 34.5649 17.6661 35.3582 18.4594C36.1515 19.2527 36.1514 20.5388 35.3581 21.332L25.1912 31.4989C24.3977 32.2923 23.1117 32.292 22.3186 31.4989L16.6418 25.8222C15.8485 25.0289 15.8485 23.7428 16.6418 22.9496C17.4351 22.1564 18.7212 22.1563 19.5144 22.9496L23.7549 27.19Z" fill="black"/>
</g>
<defs>
<clipPath id="clip0">
<rect width="52" height="52" fill="white"/>
</clipPath>
</defs>
</svg>
