<svg width="100%" height="100%" viewBox="0 0 26 26" fill="none" xmlns="http://www.w3.org/2000/svg">
<g clip-path="url(#clip0)">
<path d="M14.7489 10.0242C14.8407 9.78721 14.8092 9.52091 14.6647 9.31185C14.3714 8.88742 13.8081 8.86244 13.4286 9.22354C12.4307 10.1728 11.4433 11.1027 10.4501 12.0438C10.2584 12.2254 10.1638 12.4721 10.1907 12.7205C10.2172 12.9666 10.3602 13.1848 10.5829 13.3193C11.0574 13.6059 11.5357 13.8756 12.0097 14.1465C11.7416 14.786 11.4952 15.3466 11.2521 15.9748C11.1055 16.3537 11.2734 16.7742 11.6427 16.953C11.9327 17.0933 12.2675 17.0661 12.572 16.7762C13.5581 15.8375 14.5648 14.8913 15.5514 13.9555C15.7452 13.7715 15.8394 13.5232 15.8098 13.2742C15.7798 13.0223 15.6273 12.8 15.3914 12.6644C14.9244 12.3958 14.4584 12.125 13.992 11.8551C14.2461 11.2581 14.51 10.6409 14.7489 10.0242ZM13.1803 11.818C13.0892 12.0332 13.1655 12.2573 13.3702 12.3755C13.9176 12.6915 14.4637 13.0097 15.0117 13.3248C15.0679 13.3571 15.0694 13.3626 15.0271 13.4028C14.225 14.1638 12.0515 16.2448 11.9836 16.2713C11.9762 16.2684 11.9578 16.2617 11.9625 16.2496C12.2326 15.5515 12.5183 14.899 12.8218 14.1809C12.8973 14.0021 12.8674 13.7607 12.6303 13.6242C12.0799 13.3073 11.5233 12.9974 10.9766 12.6672C10.9359 12.6427 10.9377 12.6312 10.974 12.5968C12.0339 11.5925 13.9172 9.78853 14.0109 9.72967C14.031 9.73399 14.0385 9.74486 14.0386 9.74917C13.7689 10.4444 13.4692 11.1354 13.1803 11.818ZM25.9937 9.06333C25.954 8.8568 25.7542 8.72162 25.5478 8.76128L23.0241 9.24675C21.8493 9.47231 20.6087 9.21582 19.6199 8.54318L18.1276 7.52781C17.9536 7.4095 17.7168 7.45459 17.5985 7.62841C17.4802 7.80234 17.5252 8.03923 17.6991 8.15755L19.1914 9.17296C20.347 9.95925 21.7993 10.2577 23.1678 9.9948L25.6916 9.50928C25.8982 9.46952 26.0334 9.26985 25.9937 9.06333ZM7.69941 6.46162L13.3571 5.09084C13.4541 5.23897 13.5822 5.36592 13.7363 5.46129L16.6009 7.41036C16.773 7.52766 17.0107 7.48511 17.13 7.30971C17.2483 7.13584 17.2033 6.89894 17.0294 6.78062L14.1573 4.82648C14.0492 4.75508 13.9706 4.67261 13.9347 4.54388C13.9122 4.46309 13.9043 4.32354 13.9981 4.17948C14.0005 4.17577 14.0033 4.17232 14.0093 4.16495C14.2062 3.92212 14.4862 3.93563 14.7712 4.03094L18.762 5.22632C18.9635 5.28675 19.1757 5.17234 19.2361 4.97085C19.2965 4.76935 19.1821 4.55708 18.9806 4.49671L15.0116 3.30782C14.4405 3.06489 13.7865 3.22048 13.4158 3.68746C13.2635 3.87936 13.1718 4.11529 13.1579 4.35528L7.51731 5.72195C7.18561 5.80599 6.85604 5.55173 6.85604 5.20682C6.85604 5.00522 6.96802 4.82333 7.14798 4.73233L14.7744 0.884612C15.0707 0.73491 15.4167 0.721707 15.7238 0.8481L22.1645 3.49724C22.3502 3.57381 22.5452 3.63475 22.7436 3.677C23.0602 3.74439 23.4129 3.79126 23.7312 3.74296L25.6838 3.40883C25.8911 3.37333 26.0304 3.1765 25.9949 2.96917C25.9594 2.76183 25.7624 2.62259 25.5552 2.65803L23.6231 2.98867C23.389 3.00212 23.1542 2.9845 22.925 2.93641C22.7612 2.90203 22.6084 2.85674 22.4545 2.79291L16.0138 0.14377C15.5019 -0.0670722 14.9251 -0.0448301 14.4312 0.204656L6.80465 4.05247C6.36657 4.27398 6.09443 4.71633 6.09443 5.20682C6.09443 6.03283 6.89113 6.66835 7.69941 6.46162ZM9.79077 17.3315C9.67758 17.5088 9.72963 17.7443 9.90696 17.8574C10.8306 18.4467 11.9003 18.7583 13.0006 18.7583C16.1757 18.7583 18.7588 16.1752 18.7588 13.0001C18.7588 9.82504 16.1757 7.24197 13.0006 7.24197C9.82556 7.24197 7.24249 9.82504 7.24249 13.0001C7.24249 14.3972 7.74913 15.7447 8.66907 16.7941C8.80776 16.9522 9.04841 16.9681 9.20654 16.8294C9.36472 16.6908 9.38051 16.4502 9.24188 16.292C8.44376 15.3815 8.0042 14.2124 8.0042 13.0001C8.0042 10.2451 10.2456 8.00368 13.0006 8.00368C15.7557 8.00368 17.9971 10.245 17.9971 13.0001C17.9971 15.7551 15.7557 17.9965 13.0006 17.9965C12.0457 17.9965 11.1176 17.7264 10.3167 17.2153C10.1393 17.1021 9.90391 17.1542 9.79077 17.3315ZM18.3018 19.5388L12.6442 20.9096C12.5472 20.7615 12.419 20.6345 12.265 20.5391L6.80994 16.8275C5.65487 16.0417 4.20559 15.7421 2.83354 16.0056L0.309733 16.4911C0.103156 16.5309 -0.0320732 16.7306 0.00763742 16.9371C0.0473988 17.1436 0.246866 17.2787 0.453595 17.2391L2.9773 16.7536C4.15186 16.528 5.39259 16.7845 6.3815 17.4573C6.39135 17.464 11.8502 21.1782 11.8605 21.1845C12.0627 21.3074 12.1762 21.5742 12.0102 21.8104C11.8275 22.0702 11.5096 22.0647 11.2301 21.9693L8.87123 21.263C8.32691 21.1 7.7831 20.937 7.23929 20.774C7.03784 20.7135 6.82553 20.8279 6.7651 21.0293C6.70472 21.2308 6.81908 21.4431 7.02052 21.5035C7.56444 21.6666 8.1083 21.8296 8.65282 21.9927L10.9897 22.6924C11.5443 22.9297 12.201 22.7856 12.5856 22.3126C12.7406 22.122 12.8295 21.8862 12.8433 21.645L18.484 20.2784C18.812 20.1942 19.1452 20.4459 19.1452 20.7935C19.1452 20.9952 19.0332 21.177 18.8533 21.268L11.2269 25.1158C10.9306 25.2654 10.5846 25.2788 10.2775 25.1522L3.83667 22.5031C3.6504 22.4264 3.45378 22.3768 3.25756 22.3233C2.9574 22.2415 2.58146 22.2105 2.26992 22.2574L0.317401 22.5915C0.110062 22.6269 -0.0292295 22.8238 0.00626633 23.0311C0.0417114 23.2384 0.238436 23.3777 0.445927 23.3423L2.37804 23.0117C2.62214 22.9977 2.86254 23.0169 3.10192 23.0689C3.25446 23.1021 3.40401 23.1486 3.54666 23.2075L9.98755 25.8566C10.4987 26.0671 11.0757 26.0455 11.5701 25.7958L19.1967 21.948C19.6348 21.7264 19.9069 21.2841 19.9069 20.7936C19.9068 19.9532 19.1046 19.334 18.3018 19.5388Z" fill="black"/>
</g>
<defs>
<clipPath id="clip0">
<rect width="26" height="26" fill="white"/>
</clipPath>
</defs>
</svg>
