<svg width="100%" height="100%" viewBox="0 0 52 52" fill="none" xmlns="http://www.w3.org/2000/svg">
<path d="M29.497 20.0482C29.6806 19.5742 29.6177 19.0416 29.3287 18.6235C28.7421 17.7746 27.6156 17.7247 26.8564 18.4469C24.8607 20.3455 22.886 22.2052 20.8995 24.0873C20.5161 24.4506 20.3269 24.944 20.3806 25.4408C20.4338 25.933 20.7197 26.3694 21.1651 26.6384C22.1141 27.2116 23.0706 27.7509 24.0188 28.2929C23.4825 29.5718 22.9898 30.693 22.5036 31.9493C22.2103 32.7072 22.5461 33.5483 23.2848 33.9058C23.8647 34.1864 24.5342 34.132 25.1433 33.5523C27.1154 31.6749 29.1289 29.7824 31.102 27.9107C31.4898 27.5428 31.6782 27.0462 31.6189 26.5482C31.5588 26.0444 31.2538 25.5999 30.7822 25.3286C29.848 24.7913 28.9162 24.2497 27.9833 23.71C28.4916 22.5161 29.0193 21.2817 29.497 20.0482ZM26.3599 23.6358C26.1777 24.0663 26.3302 24.5144 26.7397 24.7508C27.8346 25.3828 28.9268 26.0192 30.0227 26.6493C30.135 26.7139 30.1382 26.7251 30.0535 26.8054C28.4492 28.3273 24.1024 32.4893 23.9665 32.5423C23.9517 32.5366 23.915 32.5231 23.9243 32.4991C24.4645 31.1029 25.0359 29.7978 25.6429 28.3616C25.794 28.004 25.7342 27.5212 25.2599 27.2481C24.1591 26.6145 23.0459 25.9946 21.9525 25.3343C21.8712 25.2851 21.8746 25.2622 21.9473 25.1933C24.0671 23.1848 27.8336 19.5769 28.021 19.4591C28.0613 19.4678 28.0763 19.4895 28.0765 19.4981C27.5372 20.8885 26.9377 22.2707 26.3599 23.6358ZM51.9866 18.1265C51.9072 17.7134 51.5077 17.443 51.0948 17.5224L46.0474 18.4933C43.698 18.9444 41.2167 18.4314 39.2391 17.0862L36.2545 15.0554C35.9066 14.8188 35.4329 14.909 35.1963 15.2566C34.9596 15.6045 35.0497 16.0783 35.3975 16.3149L38.3821 18.3457C40.6933 19.9183 43.5978 20.5152 46.3349 19.9894L51.3826 19.0184C51.7957 18.9388 52.0662 18.5395 51.9866 18.1265ZM15.3981 12.923L26.7134 10.1815C26.9075 10.4777 27.1637 10.7316 27.4719 10.9224L33.2012 14.8205C33.5454 15.0551 34.0207 14.97 34.2594 14.6192C34.496 14.2715 34.4059 13.7977 34.0581 13.5611L28.3138 9.65275C28.0977 9.50996 27.9405 9.34502 27.8687 9.08756C27.8237 8.92598 27.8079 8.64689 27.9955 8.35876C28.0003 8.35134 28.006 8.34444 28.0179 8.32971C28.4116 7.84404 28.9717 7.87106 29.5417 8.06169L37.5232 10.4524C37.9263 10.5733 38.3508 10.3445 38.4715 9.94149C38.5923 9.5385 38.3636 9.11397 37.9606 8.99321L30.0224 6.61545C28.8803 6.12958 27.5722 6.44076 26.8309 7.37472C26.5262 7.75853 26.3428 8.23038 26.3151 8.71036L15.0339 11.4437C14.3705 11.6118 13.7114 11.1033 13.7114 10.4135C13.7114 10.0103 13.9353 9.64646 14.2953 9.46446L29.5481 1.76903C30.1407 1.46962 30.8327 1.44322 31.4468 1.696L44.3283 6.99427C44.6997 7.14743 45.0898 7.2693 45.4865 7.3538C46.1197 7.48857 46.8251 7.58232 47.4618 7.48573L51.3668 6.81745C51.7815 6.74646 52.0601 6.35281 51.9891 5.93813C51.9181 5.52346 51.524 5.24498 51.1098 5.31587L47.2455 5.97713C46.7773 6.00405 46.3077 5.96881 45.8494 5.87263C45.5217 5.80387 45.216 5.71328 44.9082 5.58561L32.0269 0.287342C31.0032 -0.134343 29.8495 -0.0898587 28.8618 0.409114L13.6086 8.10475C12.7324 8.54776 12.1882 9.43247 12.1882 10.4135C12.1882 12.0655 13.7816 13.3365 15.3981 12.923ZM19.5808 34.6628C19.3545 35.0174 19.4586 35.4884 19.8132 35.7146C21.6604 36.8932 23.7999 37.5163 26.0006 37.5163C32.3506 37.5163 37.5168 32.3502 37.5168 26C37.5168 19.6499 32.3507 14.4837 26.0006 14.4837C19.6504 14.4837 14.4843 19.6499 14.4843 26C14.4843 28.7943 15.4976 31.4891 17.3374 33.588C17.6148 33.9043 18.0961 33.9361 18.4124 33.6587C18.7287 33.3814 18.7603 32.9001 18.4831 32.5839C16.8868 30.7628 16.0077 28.4246 16.0077 26C16.0077 20.49 20.4904 16.0072 26.0006 16.0072C31.5107 16.0072 35.9934 20.4899 35.9934 26C35.9934 31.5101 31.5107 35.9929 26.0006 35.9929C24.0908 35.9929 22.2345 35.4526 20.6327 34.4304C20.2779 34.204 19.8071 34.3082 19.5808 34.6628ZM36.603 39.0773L25.2877 41.819C25.0936 41.5227 24.8374 41.2687 24.5292 41.078L13.6192 33.6548C11.309 32.0832 8.41048 31.484 5.66638 32.0111L0.618763 32.9821C0.20561 33.0616 -0.0648483 33.4609 0.0145729 33.874C0.0940957 34.287 0.49303 34.5572 0.906488 34.4781L5.9539 33.5071C8.30302 33.0558 10.7845 33.5687 12.7623 34.9143C12.782 34.9277 23.6997 42.3562 23.7204 42.3688C24.1246 42.6146 24.3517 43.1482 24.0197 43.6206C23.6544 44.1403 23.0184 44.1292 22.4594 43.9384L17.7418 42.5257C16.6531 42.1997 15.5655 41.8737 14.4779 41.5477C14.075 41.4267 13.6503 41.6556 13.5295 42.0585C13.4087 42.4614 13.6375 42.886 14.0403 43.0068C15.1282 43.3331 16.2159 43.6591 17.3049 43.9852L21.9786 45.3846C23.088 45.8592 24.4013 45.571 25.1705 44.625C25.4805 44.2439 25.6584 43.7722 25.6859 43.2899L36.9673 40.5566C37.6233 40.3883 38.2897 40.8916 38.2897 41.5868C38.2897 41.9901 38.0658 42.3538 37.7058 42.5358L22.453 50.2313C21.8606 50.5306 21.1685 50.5574 20.5542 50.3042L7.67263 45.0061C7.3001 44.8525 6.90685 44.7535 6.51442 44.6465C5.91409 44.4827 5.16223 44.4209 4.53915 44.5146L0.634099 45.1828C0.219423 45.2537 -0.0591609 45.6473 0.0118308 46.062C0.0827208 46.4767 0.476171 46.7553 0.891152 46.6844L4.75537 46.0231C5.24358 45.9953 5.72437 46.0337 6.20313 46.1377C6.50822 46.2039 6.80732 46.297 7.09261 46.4147L19.9744 51.713C20.9966 52.1341 22.1507 52.0908 23.1396 51.5913L38.3927 43.8957C39.2689 43.4526 39.8132 42.568 39.8132 41.5869C39.813 39.9062 38.2086 38.6678 36.603 39.0773Z" fill="black"/>
</svg>
