<svg width="100%" height="100%" viewBox="0 0 52 52" fill="none" xmlns="http://www.w3.org/2000/svg">
<path d="M28.1283 0V5.85752H42.0007L31.7033 16.1548C28.3981 13.7027 24.3058 12.2517 19.8743 12.2517C8.89799 12.2517 0 21.1496 0 32.1258C0 43.102 8.89799 52 19.8742 52C30.8503 52 39.7483 43.102 39.7483 32.1258C39.7483 27.6943 38.2973 23.6019 35.8452 20.2967L46.1425 9.99944V23.8718H52V0L28.1283 0ZM19.8742 45.4545C12.5129 45.4545 6.5454 39.487 6.5454 32.1257C6.5454 24.7645 12.5129 18.797 19.8742 18.797C27.2354 18.797 33.2029 24.7645 33.2029 32.1257C33.2029 39.4871 27.2354 45.4545 19.8742 45.4545Z" fill="black"/>
</svg>
