<svg width="100%" height="100%" viewBox="0 0 52 52" fill="none" xmlns="http://www.w3.org/2000/svg">
<path d="M19.724 7.17247C19.724 3.70641 22.5338 0.896606 25.9999 0.896606C29.466 0.896606 32.2758 3.70641 32.2758 7.17247C32.2758 10.6385 29.466 13.4483 25.9999 13.4483C22.5355 13.4444 19.728 10.6369 19.724 7.17247ZM33.1723 15.2414C36.6367 15.2454 39.4442 18.0529 39.4482 21.5173V28.6897C39.4482 30.1752 38.244 31.3794 36.7585 31.3794C35.2731 31.3794 34.0689 30.1752 34.0689 28.6897V21.5173C34.0689 21.0221 33.6675 20.6207 33.1723 20.6207C32.6772 20.6207 32.2758 21.0221 32.2758 21.5173V48.4138C32.2758 49.8993 31.0716 51.1035 29.5861 51.1035C28.1007 51.1035 26.8965 49.8993 26.8965 48.4138V36.7587C26.8965 36.2635 26.4951 35.8621 25.9999 35.8621C25.5048 35.8621 25.1034 36.2635 25.1034 36.7587V48.4138C25.1034 49.3748 24.5907 50.2627 23.7585 50.7432C22.9263 51.2236 21.9011 51.2236 21.0689 50.7432C20.2367 50.2627 19.724 49.3748 19.724 48.4138V21.5173C19.724 21.0221 19.3226 20.6207 18.8275 20.6207C18.3323 20.6207 17.9309 21.0221 17.9309 21.5173V28.6897C17.9309 30.1752 16.7267 31.3794 15.2413 31.3794C13.7558 31.3794 12.5516 30.1752 12.5516 28.6897V21.5173C12.5556 18.0529 15.3631 15.2454 18.8275 15.2414H33.1723Z" fill="black"/>
<path d="M7.17234 1.79316V50.207C7.17234 50.7021 6.77094 51.1035 6.27579 51.1035H1.79304C1.29788 51.1035 0.896484 50.7021 0.896484 50.207V48.4138H3.58614C4.08129 48.4138 4.48269 48.0124 4.48269 47.5173C4.48269 47.0221 4.08129 46.6207 3.58614 46.6207H0.896484V44.8276H2.68959C3.18474 44.8276 3.58614 44.4262 3.58614 43.9311C3.58614 43.4359 3.18474 43.0345 2.68959 43.0345H0.896484V41.2414H3.58614C4.08129 41.2414 4.48269 40.84 4.48269 40.3449C4.48269 39.8497 4.08129 39.4483 3.58614 39.4483H0.896484V37.6552H2.68959C3.18474 37.6552 3.58614 37.2538 3.58614 36.7587C3.58614 36.2635 3.18474 35.8621 2.68959 35.8621H0.896484V34.069H3.58614C4.08129 34.069 4.48269 33.6676 4.48269 33.1725C4.48269 32.6773 4.08129 32.2759 3.58614 32.2759H0.896484V30.4828H2.68959C3.18474 30.4828 3.58614 30.0814 3.58614 29.5863C3.58614 29.0911 3.18474 28.6897 2.68959 28.6897H0.896484V26.8966H3.58614C4.08129 26.8966 4.48269 26.4952 4.48269 26.0001C4.48269 25.5049 4.08129 25.1035 3.58614 25.1035H0.896484V23.3104H2.68959C3.18474 23.3104 3.58614 22.909 3.58614 22.4138C3.58614 21.9187 3.18474 21.5173 2.68959 21.5173H0.896484V19.7242H3.58614C4.08129 19.7242 4.48269 19.3228 4.48269 18.8276C4.48269 18.3325 4.08129 17.9311 3.58614 17.9311H0.896484V16.138H2.68959C3.18474 16.138 3.58614 15.7366 3.58614 15.2414C3.58614 14.7463 3.18474 14.3449 2.68959 14.3449H0.896484V12.5518H3.58614C4.08129 12.5518 4.48269 12.1504 4.48269 11.6552C4.48269 11.1601 4.08129 10.7587 3.58614 10.7587H0.896484V8.96557H2.68959C3.18474 8.96557 3.58614 8.56417 3.58614 8.06902C3.58614 7.57387 3.18474 7.17247 2.68959 7.17247H0.896484V5.37936H3.58614C4.08129 5.37936 4.48269 4.97797 4.48269 4.48281C4.48269 3.98766 4.08129 3.58626 3.58614 3.58626H0.896484V1.79316C0.896484 1.29801 1.29788 0.896606 1.79304 0.896606H6.27579C6.77094 0.896606 7.17234 1.29801 7.17234 1.79316Z" fill="black"/>
<path d="M50.0544 45.7241H48.4137V6.27586H50.0544C50.4043 6.27589 50.7223 6.07227 50.8688 5.75439C51.0152 5.43652 50.9632 5.06251 50.7358 4.79655L47.302 0.797932C47.1316 0.598748 46.8827 0.48407 46.6206 0.48407C46.3585 0.48407 46.1095 0.598748 45.9392 0.797932L42.5054 4.79655C42.2779 5.06251 42.226 5.43652 42.3724 5.75439C42.5188 6.07227 42.8368 6.27589 43.1868 6.27586H44.8275V45.7241H43.1868C42.8368 45.7241 42.5188 45.9277 42.3724 46.2456C42.226 46.5635 42.2779 46.9375 42.5054 47.2034L45.9392 51.2021C46.1095 51.4013 46.3585 51.5159 46.6206 51.5159C46.8827 51.5159 47.1316 51.4013 47.302 51.2021L50.7358 47.2034C50.9632 46.9375 51.0152 46.5635 50.8688 46.2456C50.7223 45.9277 50.4043 45.7241 50.0544 45.7241Z" fill="black"/>
</svg>
