<svg width="100%" height="100%" viewBox="0 0 52 52" fill="none" xmlns="http://www.w3.org/2000/svg">
<g clip-path="url(#clip0)">
<path d="M33.0459 42.1839C40.9301 42.1839 47.3443 35.7697 47.3443 27.8854C47.3443 20.0012 40.9301 13.5869 33.0459 13.5869C25.1617 13.5869 18.7473 20.0011 18.7473 27.8854C18.7473 35.7698 25.1617 42.1839 33.0459 42.1839ZM22.3997 27.1194H20.3029C20.478 24.1751 21.6553 21.4966 23.4978 19.4206L24.9763 20.8991C25.1258 21.0487 25.3219 21.1235 25.5179 21.1235C25.7139 21.1235 25.91 21.0487 26.0595 20.8991C26.3586 20.5999 26.3586 20.1149 26.0595 19.8159L24.581 18.3374C26.6571 16.4949 29.3355 15.3176 32.2798 15.1425V17.2393C32.2798 17.6623 32.6226 18.0053 33.0458 18.0053C33.4689 18.0053 33.8117 17.6623 33.8117 17.2393V15.1425C36.756 15.3176 39.4345 16.4949 41.5104 18.3374L40.0319 19.8159C39.7328 20.115 39.7328 20.6 40.0319 20.8991C40.1815 21.0486 40.3776 21.1235 40.5736 21.1235C40.7696 21.1235 40.9657 21.0487 41.1153 20.8991L42.5937 19.4206C44.4361 21.4966 45.6135 24.175 45.7885 27.1193H43.6917C43.2686 27.1193 42.9257 27.4622 42.9257 27.8852C42.9257 28.3083 43.2686 28.6512 43.6917 28.6512H45.7885C45.6134 31.5955 44.4361 34.2739 42.5936 36.3499L41.1152 34.8715C40.816 34.5724 40.3311 34.5724 40.0319 34.8715C39.7328 35.1707 39.7328 35.6557 40.0319 35.9547L41.5104 37.4332C39.4344 39.2757 36.756 40.453 33.8117 40.6281V38.5313C33.8117 38.1082 33.4689 37.7653 33.0458 37.7653C32.6226 37.7653 32.2798 38.1082 32.2798 38.5313V40.6281C29.3354 40.453 26.6571 39.2757 24.581 37.4332L26.0595 35.9548C26.3586 35.6557 26.3586 35.1707 26.0595 34.8716C25.7602 34.5724 25.2753 34.5725 24.9763 34.8716L23.4978 36.35C21.6553 34.2739 20.478 31.5956 20.3029 28.6512H22.3997C22.8227 28.6512 23.1657 28.3083 23.1657 27.8852C23.1657 27.4623 22.8227 27.1194 22.3997 27.1194Z" fill="black"/>
<path d="M42.3335 42.6282C39.5572 44.3811 36.3456 45.3076 33.0459 45.3076C23.4392 45.3076 15.6236 37.492 15.6236 27.8853C15.6236 23.9961 16.8768 20.3175 19.2475 17.2473C19.5059 16.9125 19.4442 16.4314 19.1093 16.1729C18.7745 15.9144 18.2934 15.9761 18.0349 16.311C15.4551 19.6518 14.0917 23.6542 14.0917 27.8853C14.0917 38.3367 22.5945 46.8395 33.0459 46.8395C36.6356 46.8395 40.1301 45.8312 43.1514 43.9236C43.5092 43.6978 43.616 43.2247 43.3902 42.8669C43.1643 42.5093 42.6913 42.4025 42.3335 42.6282Z" fill="black"/>
<path d="M37.6654 9.50155V6.59797C37.6654 5.80522 37.0205 5.16037 36.2278 5.16037H29.8636C29.0709 5.16037 28.426 5.80522 28.426 6.59797V9.50073C25.38 10.2639 22.5539 11.7778 20.2017 13.9463C19.8907 14.2331 19.871 14.7176 20.1577 15.0287C20.4445 15.3397 20.9291 15.3595 21.2401 15.0727C24.4645 12.1002 28.6572 10.4631 33.0457 10.4631C42.6524 10.4631 50.4679 18.2787 50.4679 27.8853C50.4679 32.8163 48.3644 37.5378 44.6965 40.8389C44.3822 41.1219 44.3566 41.6062 44.6396 41.9207C44.7908 42.0888 44.9995 42.1742 45.2091 42.1742C45.3917 42.1742 45.575 42.1093 45.7214 41.9776C49.7115 38.3863 51.9999 33.2499 51.9999 27.8852C52 19.027 45.8913 11.5695 37.6654 9.50155ZM29.9581 9.18249V6.69234H36.1336V9.18403C35.1284 9.01857 34.0972 8.93115 33.0459 8.93115C32.0035 8.93115 30.9713 9.01612 29.9581 9.18249Z" fill="black"/>
<path d="M33.0459 28.4218C33.3333 28.4218 33.5833 28.2634 33.7143 28.0294L36.3566 25.387C36.6558 25.0879 36.6558 24.6029 36.3566 24.3037C36.0575 24.0046 35.5726 24.0046 35.2732 24.3037L33.8117 25.7651V22.0349C33.8117 21.6118 33.4689 21.2689 33.0458 21.2689C32.6226 21.2689 32.2798 21.6118 32.2798 22.0349V27.6557C32.2799 28.0789 32.6227 28.4218 33.0459 28.4218Z" fill="black"/>
<path d="M11.3033 28.0583C11.3033 27.6352 10.9604 27.2923 10.5374 27.2923H0.765983C0.342956 27.2923 0 27.6352 0 28.0583C0 28.4813 0.342956 28.8242 0.765983 28.8242H10.5374C10.9604 28.8242 11.3033 28.4814 11.3033 28.0583Z" fill="black"/>
<path d="M3.82116 24.3633H11.5588C11.9818 24.3633 12.3248 24.0204 12.3248 23.5974C12.3248 23.1743 11.9818 22.8314 11.5588 22.8314H3.82116C3.39813 22.8314 3.05518 23.1743 3.05518 23.5974C3.05518 24.0204 3.39803 24.3633 3.82116 24.3633Z" fill="black"/>
<path d="M12.5801 18.3704H6.23437C5.81134 18.3704 5.46838 18.7134 5.46838 19.1364C5.46838 19.5594 5.81134 19.9024 6.23437 19.9024H12.5801C13.0031 19.9024 13.3461 19.5594 13.3461 19.1364C13.3461 18.7133 13.0031 18.3704 12.5801 18.3704Z" fill="black"/>
<path d="M12.3247 32.1734C12.3247 31.7504 11.9817 31.4074 11.5587 31.4074H3.82116C3.39813 31.4074 3.05518 31.7504 3.05518 32.1734C3.05518 32.5965 3.39813 32.9394 3.82116 32.9394H11.5588C11.9817 32.9394 12.3247 32.5965 12.3247 32.1734Z" fill="black"/>
<path d="M12.5801 35.8684H6.23437C5.81134 35.8684 5.46838 36.2114 5.46838 36.6344C5.46838 37.0574 5.81134 37.4004 6.23437 37.4004H12.5801C13.0031 37.4004 13.3461 37.0574 13.3461 36.6344C13.3461 36.2114 13.0031 35.8684 12.5801 35.8684Z" fill="black"/>
</g>
<defs>
<clipPath id="clip0">
<rect width="52" height="52" fill="white"/>
</clipPath>
</defs>
</svg>
