<svg width="100%" height="100%" viewBox="0 0 52 52" fill="none" xmlns="http://www.w3.org/2000/svg">
<g clip-path="url(#clip0)">
<path fill-rule="evenodd" clip-rule="evenodd" d="M42.5245 6.25323C41.9921 6.07748 41.4177 6.36669 41.2419 6.8995C41.0662 7.43191 41.3554 8.00637 41.8878 8.18212C46.7211 9.77737 49.9688 14.2715 49.9688 19.3647C49.9688 24.1659 47.098 28.4446 42.6551 30.2648C42.6547 30.2652 42.6539 30.2656 42.6531 30.266C42.6523 30.2664 42.6515 30.2664 42.6507 30.2668C41.2383 30.8536 39.7808 31.1388 38.1946 31.1388C37.6341 31.1388 37.179 31.5935 37.179 32.1544C37.179 32.7154 37.6341 33.1701 38.1946 33.1701C39.2472 33.1701 40.2533 33.0622 41.23 32.8428C40.3663 34.5451 38.7548 37.1429 36.0245 39.7066C31.7613 43.7092 23.8513 48.3806 10.3268 48.0014C9.73254 47.5531 7.99963 46.1169 6.28696 43.4652C4.34537 40.4596 2.03125 35.2267 2.03125 27.3675C2.03125 19.4734 2.67316 14.1652 4.05179 10.6613C5.33481 7.40057 7.27838 5.60339 10.3538 4.83453C15.1296 3.64077 17.0681 4.25848 17.8528 4.98687C18.5907 5.67163 18.8089 6.9233 18.5022 8.70819C18.0821 11.1485 17.3823 12.6298 16.2996 13.3697C15.2018 14.12 13.5102 14.2485 11.1282 13.7625C10.1979 13.5602 9.04541 13.2476 8.11865 12.9456C7.58545 12.7715 7.01218 13.0635 6.83841 13.5967C6.66464 14.1299 6.95624 14.7031 7.48944 14.8769C8.22855 15.1177 9.10214 15.3649 9.91147 15.5644C9.97931 18.1721 10.601 26.1222 15.5529 29.7419C14.3009 33.4954 14.7246 36.2546 14.7444 36.3776C14.825 36.8763 15.2562 37.231 15.7458 37.231C15.7997 37.231 15.8541 37.227 15.9092 37.2179C16.463 37.1282 16.8391 36.6069 16.7495 36.0531C16.7451 36.0261 16.3325 33.3351 17.7246 29.7007C17.7254 29.6987 17.7258 29.6963 17.7266 29.6943C17.7274 29.6919 17.7282 29.6904 17.729 29.6884C18.9807 26.2904 21.2571 23.4256 24.5067 21.154C24.7662 23.1503 25.4561 25.0657 26.5431 26.7724C26.7367 27.0763 27.0652 27.2425 27.4008 27.2425C27.5873 27.2425 27.7762 27.191 27.9456 27.0835C28.4185 26.7819 28.5577 26.1543 28.2562 25.681C27.0553 23.7958 26.4205 21.6118 26.4205 19.3647C26.4205 19.3639 26.4205 19.3635 26.4205 19.3631C26.4213 14.2707 29.6682 9.77737 34.5011 8.18212C35.0335 8.00637 35.3231 7.43191 35.147 6.8991C34.9712 6.36669 34.3964 6.07748 33.8643 6.25323C28.38 8.0635 24.6372 13.0563 24.4012 18.7883C20.6545 21.1369 17.9432 24.15 16.3214 27.7642C12.7679 24.7416 12.0899 18.5562 11.9641 15.9643C14.3171 16.2797 16.0786 15.981 17.4453 15.0471C19.0338 13.9613 19.9773 12.1125 20.5037 9.05215C20.9346 6.548 20.5077 4.67941 19.2342 3.49795C17.5338 1.91976 14.4679 1.71228 9.86108 2.86398C6.13461 3.7955 3.68799 6.03662 2.16138 9.91741C0.686737 13.6661 0 19.2108 0 27.3675C0 35.7897 2.52914 41.4284 4.65085 44.6752C6.98441 48.2461 9.33502 49.795 9.4342 49.8588C9.58893 49.9596 9.76825 50.016 9.95273 50.0219C10.5994 50.0437 11.2393 50.0544 11.8733 50.0544C17.4541 50.054 22.531 49.2173 26.9871 47.5606C30.9849 46.0745 34.4932 43.9301 37.4147 41.1872C41.5859 37.271 43.3442 33.2907 43.8488 31.9628C48.8159 29.7356 52 24.84 52 19.3647C52 13.3932 48.1922 8.1242 42.5245 6.25323Z" fill="black"/>
<path fill-rule="evenodd" clip-rule="evenodd" d="M38.1946 7.59058C38.754 7.59058 39.2102 7.13434 39.2102 6.57495C39.2102 6.01556 38.754 5.55933 38.1946 5.55933C37.6352 5.55933 37.179 6.01556 37.179 6.57495C37.179 7.13434 37.6352 7.59058 38.1946 7.59058Z" fill="black"/>
</g>
<defs>
<clipPath id="clip0">
<rect width="52" height="52" fill="white"/>
</clipPath>
</defs>
</svg>
