<svg width="100%" height="100%" viewBox="0 0 26 26" fill="none" xmlns="http://www.w3.org/2000/svg">
<g clip-path="url(#clip0)">
<path fill-rule="evenodd" clip-rule="evenodd" d="M21.2623 3.12661C20.9961 3.03874 20.7088 3.18335 20.621 3.44975C20.5331 3.71596 20.6777 4.00319 20.9439 4.09106C23.3606 4.88868 24.9844 7.13575 24.9844 9.68235C24.9844 12.083 23.549 14.2223 21.3275 15.1324C21.3273 15.1326 21.3269 15.1328 21.3265 15.133C21.3261 15.1332 21.3257 15.1332 21.3253 15.1334C20.6192 15.4268 19.8904 15.5694 19.0973 15.5694C18.817 15.5694 18.5895 15.7967 18.5895 16.0772C18.5895 16.3577 18.817 16.585 19.0973 16.585C19.6236 16.585 20.1266 16.5311 20.615 16.4214C20.1832 17.2726 19.3774 18.5715 18.0123 19.8533C15.8806 21.8546 11.9257 24.1903 5.16342 24.0007C4.86627 23.7765 3.99982 23.0585 3.14348 21.7326C2.17268 20.2298 1.01562 17.6134 1.01562 13.6838C1.01562 9.73671 1.33658 7.08259 2.02589 5.33064C2.6674 3.70028 3.63919 2.80169 5.17691 2.41726C7.56482 1.82039 8.53403 2.12924 8.92639 2.49344C9.29535 2.83581 9.40445 3.46165 9.25111 4.35409C9.04105 5.57423 8.69113 6.31492 8.1498 6.68487C7.60092 7.05998 6.7551 7.12425 5.56412 6.88125C5.09895 6.78009 4.52271 6.62378 4.05933 6.47282C3.79272 6.38574 3.50609 6.53174 3.4192 6.79834C3.33232 7.06494 3.47812 7.35157 3.74472 7.43846C4.11427 7.55887 4.55107 7.68245 4.95573 7.78222C4.98965 9.08607 5.30049 13.0611 7.77647 14.871C7.15044 16.7477 7.36229 18.1273 7.37221 18.1888C7.41248 18.4382 7.6281 18.6155 7.87288 18.6155C7.89986 18.6155 7.92703 18.6135 7.95461 18.6089C8.23152 18.5641 8.41957 18.3035 8.37474 18.0265C8.37256 18.0131 8.16626 16.6676 8.86232 14.8503C8.86272 14.8493 8.86292 14.8482 8.86331 14.8472C8.86371 14.846 8.86411 14.8452 8.8645 14.8442C9.49034 13.1452 10.6286 11.7128 12.2534 10.577C12.3831 11.5751 12.728 12.5328 13.2716 13.3862C13.3684 13.5382 13.5326 13.6213 13.7004 13.6213C13.7937 13.6213 13.8881 13.5955 13.9728 13.5417C14.2092 13.391 14.2789 13.0772 14.1281 12.8405C13.5276 11.8979 13.2103 10.8059 13.2103 9.68235C13.2103 9.68196 13.2103 9.68176 13.2103 9.68156C13.2107 7.13536 14.8341 4.88868 17.2505 4.09106C17.5168 4.00319 17.6616 3.71595 17.5735 3.44955C17.4856 3.18335 17.1982 3.03874 16.9322 3.12661C14.19 4.03175 12.3186 6.52816 12.2006 9.39413C10.3272 10.5684 8.97162 12.075 8.16071 13.8821C6.38396 12.3708 6.04495 9.27809 5.98207 7.98217C7.15857 8.13987 8.03931 7.99051 8.72267 7.52356C9.51692 6.98063 9.98863 6.05626 10.2519 4.52607C10.4673 3.274 10.2538 2.3397 9.6171 1.74898C8.76691 0.959882 7.23395 0.856138 4.93054 1.43199C3.06731 1.89775 1.84399 3.01831 1.08069 4.95871C0.343369 6.83305 0 9.60539 0 13.6838C0 17.8948 1.26457 20.7142 2.32542 22.3376C3.4922 24.1231 4.66751 24.8975 4.7171 24.9294C4.79446 24.9798 4.88412 25.008 4.97636 25.011C5.2997 25.0219 5.61966 25.0272 5.93665 25.0272C8.72704 25.027 11.2655 24.6087 13.4935 23.7803C15.4924 23.0372 17.2466 21.9651 18.7073 20.5936C20.7929 18.6355 21.6721 16.6453 21.9244 15.9814C24.4079 14.8678 26 12.42 26 9.68235C26 6.69658 24.0961 4.0621 21.2623 3.12661Z" fill="black"/>
<path fill-rule="evenodd" clip-rule="evenodd" d="M19.0973 3.79529C19.377 3.79529 19.6051 3.56717 19.6051 3.28748C19.6051 3.00778 19.377 2.77966 19.0973 2.77966C18.8176 2.77966 18.5895 3.00778 18.5895 3.28748C18.5895 3.56717 18.8176 3.79529 19.0973 3.79529Z" fill="black"/>
</g>
<defs>
<clipPath id="clip0">
<rect width="26" height="26" fill="white"/>
</clipPath>
</defs>
</svg>
