<svg width="100%" height="100%" viewBox="0 0 52 52" fill="none" xmlns="http://www.w3.org/2000/svg">
<g clip-path="url(#clip0)">
<path d="M45.2134 4.90681C36.7198 0.472697 26.415 -0.527084 17.3933 1.24325C16.9805 1.3243 16.7115 1.72456 16.7924 2.13741C16.8735 2.55026 17.2737 2.8192 17.6866 2.73825C26.409 1.02662 36.3513 1.99898 44.5082 6.25729C48.7215 8.45693 51.0681 13.084 50.3473 17.7713L46.6791 41.6239C45.9322 46.4807 41.7502 50.0614 36.8449 50.0614H15.155C10.2411 50.0614 6.06641 46.4722 5.32084 41.6239L1.6526 17.7713C0.931711 13.0841 3.27831 8.45693 7.49163 6.25729C9.77293 5.06627 12.2624 4.10122 14.8911 3.38896C15.2971 3.27897 15.5371 2.86064 15.427 2.45459C15.3169 2.04854 14.8988 1.80824 14.4926 1.91864C11.758 2.65964 9.16528 3.66501 6.78659 4.90692C1.99527 7.4082 -0.673078 12.6712 0.146837 18.003L3.81507 41.8556C4.67622 47.4554 9.498 51.5848 15.155 51.5848H36.845C42.5107 51.5848 47.3252 47.4468 48.185 41.8556L51.8532 18.003C52.673 12.6712 50.0048 7.4082 45.2134 4.90681Z" fill="black"/>
<path d="M30.6177 26.5903C30.6177 26.1697 30.2767 25.8286 29.856 25.8286H12.5933C9.54045 25.8286 7.20817 28.5519 7.6715 31.5652L9.12842 41.0388C9.58931 44.0348 12.1239 46.2092 15.1552 46.2092H36.8446C39.876 46.2092 42.4106 44.0348 42.8714 41.0388L44.3284 31.5652C44.7924 28.5477 42.4553 25.8286 39.4066 25.8286H32.9029C32.4822 25.8286 32.1412 26.1697 32.1412 26.5903C32.1412 27.011 32.4822 27.3521 32.9029 27.3521H39.4066C41.5255 27.3521 43.1443 29.2421 42.8227 31.3336L41.3658 40.8072C41.0201 43.0546 39.1187 44.6858 36.8446 44.6858H15.1553C12.8814 44.6858 10.9799 43.0546 10.6342 40.8072L9.17727 31.3336C8.85521 29.2392 10.4773 27.3521 12.5933 27.3521H29.856C30.2767 27.3521 30.6177 27.011 30.6177 26.5903Z" fill="black"/>
<path d="M17.1415 33.3203V34.8762C17.1415 35.2968 17.4825 35.6379 17.9032 35.6379C18.3239 35.6379 18.6649 35.2968 18.6649 34.8762V33.3203C18.6649 32.8996 18.3239 32.5586 17.9032 32.5586C17.4825 32.5586 17.1415 32.8996 17.1415 33.3203Z" fill="black"/>
<path d="M34.8584 34.8763V33.3204C34.8584 32.8998 34.5174 32.5587 34.0967 32.5587C33.676 32.5587 33.335 32.8998 33.335 33.3204V34.8763C33.335 35.2969 33.676 35.638 34.0967 35.638C34.5174 35.638 34.8584 35.2969 34.8584 34.8763Z" fill="black"/>
<path d="M27.5604 34.3295C27.1665 34.7816 26.5977 35.0407 26 35.0407C25.4023 35.0407 24.8334 34.7816 24.4395 34.3296C24.1632 34.0123 23.682 33.9794 23.3648 34.2558C23.0476 34.5321 23.0146 35.0133 23.291 35.3305C23.9743 36.1146 24.9616 36.5643 25.9999 36.5643C27.0381 36.5643 28.0254 36.1146 28.7087 35.3306C28.9852 35.0134 28.9521 34.5323 28.635 34.2559C28.3179 33.9793 27.8367 34.0123 27.5604 34.3295Z" fill="black"/>
<path d="M38.003 7.67745C30.4599 5.16215 21.5469 5.15982 13.9971 7.67745C11.8031 8.409 10.6064 10.7901 11.3293 12.9854L13.4684 19.4808C14.0377 21.2098 15.6434 22.3715 17.4638 22.3715H34.5363C36.3567 22.3715 37.9623 21.2098 38.5316 19.4808L40.6706 12.9854C41.3937 10.7902 40.197 8.409 38.003 7.67745ZM23.9979 20.8482L25.6912 14.3216C25.7736 14.0041 26.2264 14.0039 26.309 14.3216L28.0022 20.8483H23.9979V20.8482ZM39.2237 12.509L37.0847 19.0044C36.7215 20.1072 35.6973 20.8482 34.5363 20.8482H29.5761C29.3949 20.1497 27.9751 14.6772 27.7836 13.9389C27.5727 13.1265 26.8393 12.559 26 12.559C25.1607 12.559 24.4273 13.1265 24.2165 13.9389L22.424 20.8481H17.4638C16.3026 20.8481 15.2786 20.1072 14.9154 19.0043L12.7763 12.5088C12.3151 11.1084 13.079 9.58936 14.479 9.12248C15.2632 8.86096 16.0615 8.62939 16.8715 8.42424L17.5024 10.6017C17.6198 11.0072 18.0433 11.2381 18.446 11.1213C18.8501 11.0042 19.0827 10.5817 18.9656 10.1777L18.3585 8.08228C20.5752 7.62332 22.8753 7.36819 25.2383 7.3234V9.67193C25.2383 10.0926 25.5794 10.4337 26 10.4337C26.4207 10.4337 26.7618 10.0926 26.7618 9.67193V7.3236C29.1248 7.36839 31.4249 7.62362 33.6416 8.08248L33.0345 10.1779C32.9174 10.582 33.15 11.0044 33.5541 11.1215C33.9563 11.2381 34.3801 11.0077 34.4977 10.6019L35.1286 8.42444C35.9385 8.6295 36.7368 8.86116 37.5211 9.12258C38.9211 9.58946 39.6849 11.1085 39.2237 12.509Z" fill="black"/>
</g>
<defs>
<clipPath id="clip0">
<rect width="52" height="52" fill="white"/>
</clipPath>
</defs>
</svg>
